<?xml version="1.0" encoding="UTF-8" standalone="no"?>
<!-- Created with Inkscape (http://www.inkscape.org/) -->

<svg
   xmlns:dc="http://purl.org/dc/elements/1.1/"
   xmlns:cc="http://creativecommons.org/ns#"
   xmlns:rdf="http://www.w3.org/1999/02/22-rdf-syntax-ns#"
   xmlns:svg="http://www.w3.org/2000/svg"
   xmlns="http://www.w3.org/2000/svg"
   version="1.1"
   width="1052.3622"
   height="744.09448"
   id="svg4059">
  <defs
     id="defs4061" />
  <metadata
     id="metadata4064">
    <rdf:RDF>
      <cc:Work
         rdf:about="">
        <dc:format>image/svg+xml</dc:format>
        <dc:type
           rdf:resource="http://purl.org/dc/dcmitype/StillImage" />
        <dc:title></dc:title>
      </cc:Work>
    </rdf:RDF>
  </metadata>
  <g
     transform="translate(0,-308.26769)"
     id="layer1">
    <path
       d="m 538.40625,495.76769 c -8.05674,66.9338 -77.31603,151.94452 -154.9375,179.84375 3.27747,-7.40037 5.09375,-15.49392 5.09375,-24 0,-14.42887 -5.21809,-27.70021 -13.96875,-38.3125 1.97025,-21.96404 1.77421,-48.67721 -1.375,-80.59375 -13.0022,16.9579 -23.30307,37.7663 -32.15625,58.78125 -6.27289,-1.8029 -12.93745,-2.78125 -19.84375,-2.78125 -7.73405,0 -15.17627,1.22854 -22.09375,3.46875 -7.42014,-13.90647 -17.47037,-28.11748 -33.78125,-41.59375 -2.4998,23.48832 -1.59267,44.90394 1.6875,63.65625 -8.2866,10.45096 -13.1875,23.37311 -13.1875,37.375 0,1.17093 0.0574,2.34484 0.125,3.5 -19.28312,-16.49687 -36.95649,-40.46365 -51.9375,-73.46875 -5.25941,95.33183 -64.45889,177.27744 -150.5,273.75 61.55905,-33.2251 123.79671,-75.61843 182.8125,-75.78125 4.05468,-25.33145 30.1327,-32.48291 64.65625,-15.15625 4.05331,-9.20658 11.84907,-15.85762 21.59375,-20.21875 12.89223,29.16757 60.06405,56.23506 110.53125,61.78125 -2.71475,10.31567 2.48339,19.28096 6.03125,19.90625 L 457.25,806.89269 c 12.40469,-0.59384 24.70147,-2.7024 36.40625,-6.5625 8.39362,6.41285 17.71829,12.37841 24.1875,10.96875 l -1.71875,-21.125 c 16.95352,-10.03129 31.72929,-24.94439 42.5,-45.90625 -30.14632,11.20556 -67.24092,-3.20513 -103.65625,-19.84375 14.31376,-2.87534 30.90137,-1.2243 48.09375,7.71875 48.64496,-20.64584 97.96875,23.25 97.96875,23.25 59.36547,-28.55091 217.47867,-17.57755 366.6875,81.8125 -81.50891,-100.35408 -186.3503,-229.51108 -429.3125,-341.4375 z"
       id="path3993"
       style="color:#000000;fill:#000000;stroke:none;stroke-width:1.77165353;marker:none;visibility:visible;display:inline;overflow:visible;enable-background:accumulate" />
    <path
       d="m 288.65109,693.0004 5.05076,4.29315 42.42641,-3.28299 4.04061,-10.85914 -3.53553,4.54568 -42.67895,7.32361 z"
       id="path4001"
       style="color:#000000;fill:#ffffff;stroke:none;stroke-width:1.77165353;marker:none;visibility:visible;display:inline;overflow:visible;enable-background:accumulate" />
    <path
       d="m 304.03798,658.90775 c -1.76289,-6.80271 12.44511,-9.95294 27.47128,-14.84657 15.02617,-4.89363 30.11288,-9.25782 32.38025,-2.07348 l 20.70813,-5.3033 -19.95051,10.10152 c -0.49139,22.54552 -11.07093,22.43929 -24.68052,24.39009 -27.2072,3.89988 -30.04298,7.38697 -35.42356,-8.48018 l -7.32361,1.01015 c -0.9703,15.831 -2.42168,12.53269 -25.2278,11.6308 -19.90697,-0.78724 -18.93844,-3.2579 -19.127,-19.42359 0.28173,-4.87276 13.76208,-3.38375 22.74303,-2.43949 9.18847,0.96609 18.93544,1.78821 19.844,6.69675 z"
       id="path4003"
       style="color:#000000;fill:#ffffff;stroke:none;stroke-width:1.77165353;marker:none;visibility:visible;display:inline;overflow:visible;enable-background:accumulate" />
  </g>
</svg>